<?xml version="1.0" standalone="no"?>
<!DOCTYPE svg PUBLIC "-//W3C//DTD SVG 20010904//EN" "http://www.w3.org/TR/2001/REC-SVG-20010904/DTD/svg10.dtd">
<svg version="1.0" xmlns="http://www.w3.org/2000/svg" width="594.000000pt" height="260.000000pt"
    viewBox="0 0 594.000000 260.000000" preserveAspectRatio="xMidYMid meet">

    <g transform="translate(0.000000,260.000000) scale(0.100000,-0.100000)" fill="#53535A" stroke="none">
        <path fill="#B70D31" d="M4605 2109 c-17 -4 -44 -22 -60 -39 -27 -29 -29 -35 -37 -156 -8
-129 -20 -164 -55 -164 -8 0 -13 -12 -13 -32 0 -23 8 -38 31 -58 l32 -26 5
-130 c3 -80 10 -139 18 -156 19 -37 63 -66 113 -74 l41 -7 0 42 c0 34 -3 41
-19 41 -11 0 -29 12 -40 26 -18 24 -21 41 -21 141 0 119 -11 161 -47 182 -17
9 -16 11 3 33 37 40 44 64 44 157 0 105 12 140 52 148 25 5 28 10 28 44 0 43
-11 47 -75 28z" />
        <path fill="#B70D31" d="M5460 2080 c0 -32 4 -40 18 -40 11 0 27 -9 38 -21 16 -17 20 -42 24
-134 5 -110 6 -115 35 -145 26 -28 28 -33 15 -43 -43 -32 -50 -58 -50 -174 0
-128 -10 -162 -52 -170 -25 -5 -28 -10 -28 -46 l0 -40 43 7 c51 8 85 32 112
77 16 27 20 57 23 162 4 128 5 128 33 149 22 16 29 30 29 55 0 21 -5 33 -13
33 -33 0 -47 35 -47 118 0 153 -27 213 -109 241 -61 20 -71 16 -71 -29z" />
        <path d="M4748 1830 c-38 -29 -58 -80 -58 -147 0 -105 61 -162 159 -148 26 3
53 10 59 14 19 11 3 44 -17 36 -68 -26 -126 -10 -147 41 -18 43 -18 86 0 129
19 44 48 58 107 53 37 -4 49 -1 54 10 8 23 -13 32 -76 32 -41 0 -63 -5 -81
-20z" />
        <path d="M4995 1828 c-36 -28 -55 -76 -55 -140 0 -104 60 -165 150 -153 28 3
54 14 71 31 65 63 58 219 -13 268 -34 24 -119 21 -153 -6z m143 -44 c18 -21
22 -37 22 -90 0 -59 -3 -68 -29 -95 -48 -48 -111 -36 -137 26 -52 126 61 251
144 159z" />
        <path d="M5271 1824 c-32 -14 -34 -16 -18 -31 13 -13 20 -14 29 -5 16 16 90
16 106 0 23 -23 12 -48 -41 -87 -72 -53 -107 -96 -107 -132 l0 -29 100 0 c82
0 100 3 100 15 0 12 -16 15 -80 15 -44 0 -80 3 -80 8 0 17 34 54 78 83 26 18
55 41 64 53 45 54 2 126 -74 126 -24 -1 -58 -7 -77 -16z" />
        <path d="M250 879 l0 -360 36 -15 c53 -22 202 -30 261 -14 68 19 127 81 149
156 24 84 16 215 -17 280 -37 72 -100 108 -188 109 -36 0 -85 -3 -108 -8 l-43
-7 0 110 0 110 -45 0 -45 0 0 -361z m299 52 c61 -33 83 -203 39 -291 -32 -62
-73 -83 -159 -77 -37 2 -71 7 -78 11 -16 11 -15 352 2 363 18 12 108 19 142
12 17 -3 41 -11 54 -18z" />
        <path d="M824 1230 c-29 -11 -37 -26 -36 -64 1 -35 24 -56 63 -56 37 0 59 24
59 64 0 48 -41 74 -86 56z" />
        <path d="M4152 879 l3 -361 24 -19 c17 -14 39 -19 80 -19 71 0 83 8 79 51 -3
31 -6 34 -31 31 -57 -7 -57 -10 -57 349 l0 329 -50 0 -51 0 3 -361z" />
        <path d="M1093 1158 c-12 -6 -24 -23 -27 -39 -18 -93 -14 -86 -64 -96 -44 -8
-47 -10 -47 -38 0 -28 3 -30 42 -33 l41 -3 4 -192 c3 -134 8 -200 17 -219 22
-44 72 -61 163 -56 43 3 81 7 84 11 4 3 3 22 0 41 l-7 35 -65 -2 c-94 -3 -94
-2 -94 209 l0 173 63 3 62 3 0 35 0 35 -62 3 -63 3 0 69 c0 74 -4 79 -47 58z" />
        <path d="M2998 1159 c-21 -8 -28 -19 -33 -52 -11 -73 -13 -75 -61 -83 -42 -6
-44 -8 -44 -40 0 -34 1 -34 45 -34 l45 0 0 -200 0 -200 28 -31 c24 -27 37 -33
85 -37 31 -2 77 -1 102 2 41 7 45 10 45 34 0 43 -10 50 -77 48 -39 -1 -67 4
-75 12 -9 9 -14 62 -16 192 l-3 180 66 0 66 0 -3 38 -3 37 -62 3 -63 3 0 69
c0 39 -3 70 -7 69 -5 0 -20 -5 -35 -10z" />
        <path d="M1421 1030 c-80 -13 -81 -16 -81 -296 l0 -244 50 0 50 0 0 230 0 230
78 0 c88 0 117 -12 149 -59 22 -32 23 -43 23 -217 l0 -184 50 0 50 0 0 170 c0
215 -9 262 -64 316 -31 32 -54 44 -94 53 -58 12 -141 13 -211 1z" />
        <path d="M2026 1030 c-72 -23 -135 -94 -157 -175 -6 -22 -9 -80 -7 -130 3 -72
9 -99 28 -135 46 -82 125 -116 251 -107 73 5 139 27 139 47 0 17 -23 60 -33
60 -5 0 -34 -7 -64 -16 -118 -34 -212 16 -224 121 l-4 30 162 3 c161 2 162 3
182 29 36 44 21 163 -26 215 -46 51 -174 82 -247 58z m129 -84 c40 -17 64 -50
72 -100 l6 -36 -138 0 -137 0 6 31 c13 64 73 118 134 119 12 0 38 -6 57 -14z" />
        <path d="M3311 1030 c-18 -4 -37 -14 -42 -22 -16 -25 -20 -94 -17 -303 l3
-210 48 -3 47 -3 0 230 0 231 50 0 c53 0 112 -19 142 -46 16 -15 19 -14 42 12
32 37 32 48 -1 72 -61 44 -185 63 -272 42z" />
        <path d="M3765 1033 c-16 -2 -47 -9 -69 -14 -36 -10 -38 -12 -32 -42 9 -43 17
-48 56 -37 19 6 66 11 103 12 54 1 74 -3 95 -19 25 -19 47 -77 36 -95 -3 -5
-45 -8 -93 -8 -185 0 -265 -70 -248 -218 6 -57 53 -105 119 -123 53 -14 217
-7 273 12 l40 14 0 212 c0 199 -1 213 -21 240 -35 47 -79 66 -158 69 -39 1
-84 0 -101 -3z m185 -372 l0 -90 -45 -7 c-25 -3 -71 -4 -102 -2 -66 6 -93 30
-93 85 0 75 42 102 163 103 l77 0 0 -89z" />
        <path d="M800 761 l0 -271 50 0 50 0 -2 268 -3 267 -47 3 -48 3 0 -270z" />
        <path d="M2387 1023 c-11 -10 -8 -280 3 -357 13 -85 39 -130 94 -159 36 -19
56 -22 163 -22 115 0 123 1 147 24 l26 24 0 249 0 249 -47 -3 -48 -3 -3 -227
-2 -228 -76 0 c-148 0 -164 28 -164 285 l0 175 -43 0 c-24 0 -47 -3 -50 -7z" />
    </g>
</svg>