<?xml version="1.0" encoding="UTF-8" standalone="no"?>
<!-- Generator: Adobe Illustrator 18.1.1, SVG Export Plug-In . SVG Version: 6.00 Build 0)  -->

<svg
   version="1.1"
   id="Capa_1"
   x="0px"
   y="0px"
   viewBox="0 0 25.93 25.93"
   style="enable-background:new 0 0 25.93 25.93;"
   xml:space="preserve"
   xmlns:inkscape="http://www.inkscape.org/namespaces/inkscape"
   xmlns:sodipodi="http://sodipodi.sourceforge.net/DTD/sodipodi-0.dtd"
   xmlns="http://www.w3.org/2000/svg"
   xmlns:svg="http://www.w3.org/2000/svg"><defs
   id="defs41" /><sodipodi:namedview
   pagecolor="#505050"
   bordercolor="#ffffff"
   borderopacity="1"
   inkscape:pageshadow="0"
   inkscape:pageopacity="0"
   inkscape:pagecheckerboard="1"
   showgrid="false"
   inkscape:zoom="30.929425"
   inkscape:cx="6.5794951"
   inkscape:cy="12.948834"
   inkscape:window-width="2400"
   inkscape:window-height="1261"
   inkscape:window-x="2391"
   inkscape:window-y="-9"
   inkscape:window-maximized="1"
   inkscape:current-layer="c118_triangle" />
<g
   id="g6">
	<g
   id="c118_triangle"
   style="fill:#d40000">
		<path
   d="M25.397,4.554h-2.042l-9.974,12.644c-0.101,0.124-0.256,0.197-0.416,0.197c-0.164,0-0.315-0.073-0.419-0.197L2.575,4.554    H0.532c-0.206,0-0.392,0.115-0.479,0.299c-0.09,0.184-0.064,0.403,0.06,0.561l12.435,15.762c0.104,0.125,0.255,0.2,0.419,0.2    c0.16,0,0.315-0.075,0.416-0.2L25.816,5.413c0.128-0.157,0.148-0.377,0.058-0.561C25.789,4.669,25.601,4.554,25.397,4.554z"
   id="path2"
   style="fill:#b70d31;fill-opacity:1" />
	</g>
	<g
   id="Capa_1_184_">
	</g>
</g>
<g
   id="g8">
</g>
<g
   id="g10">
</g>
<g
   id="g12">
</g>
<g
   id="g14">
</g>
<g
   id="g16">
</g>
<g
   id="g18">
</g>
<g
   id="g20">
</g>
<g
   id="g22">
</g>
<g
   id="g24">
</g>
<g
   id="g26">
</g>
<g
   id="g28">
</g>
<g
   id="g30">
</g>
<g
   id="g32">
</g>
<g
   id="g34">
</g>
<g
   id="g36">
</g>
</svg>
